<svg version="1.1" id="Layer_1" xmlns="http://www.w3.org/2000/svg" xmlns:xlink="http://www.w3.org/1999/xlink" x="0px" y="0px"
	 width="100%" viewBox="0 0 1457 720" enable-background="new 0 0 1457 720" xml:space="preserve">
<path fill="#FFFFFE" opacity="1.000000" stroke="none" 
	d="
M1458.000000,421.000000 
	C1458.000000,520.990479 1458.000000,620.981018 1458.000000,720.978638 
	C972.388977,720.985718 486.777954,720.985718 1.083466,720.985718 
	C1.083466,481.078461 1.083466,241.156906 1.083466,1.117670 
	C486.666656,1.117670 972.333313,1.117670 1458.000000,1.121927 
	C1458.000000,135.780151 1458.000000,270.434143 1457.650879,405.452728 
	C1454.759033,401.811768 1452.820068,397.206085 1449.553467,393.920258 
	C1441.728516,386.049042 1427.851318,385.018311 1418.040527,390.826172 
	C1408.041992,396.745117 1403.207275,408.610535 1405.908936,420.599518 
	C1408.510986,432.146088 1417.383667,439.963165 1428.889893,440.846313 
	C1441.849609,441.840973 1451.559204,435.973145 1456.191284,424.399017 
	C1456.665405,423.214447 1457.391113,422.130585 1458.000000,421.000000 
M858.963196,415.199249 
	C858.823425,416.960815 858.683655,418.722382 858.496155,421.085663 
	C866.399414,421.085663 873.861633,420.867920 881.302002,421.177307 
	C885.031311,421.332428 886.206360,419.882141 886.640686,416.466095 
	C889.329651,395.320465 892.155029,374.192169 894.957458,353.061066 
	C896.438110,341.896637 897.963989,330.738220 899.535828,319.085114 
	C910.856018,319.085114 921.777893,319.085114 932.859680,319.085114 
	C933.942871,311.519928 934.950378,304.483185 936.027893,296.957825 
	C934.021912,296.768921 932.591797,296.516418 931.161621,296.516479 
	C864.834045,296.519104 798.506470,296.561584 732.178894,296.520905 
	C728.250427,296.518494 725.358215,297.710938 722.538940,300.607391 
	C709.405579,314.100220 696.046143,327.373840 682.685242,340.643036 
	C681.394165,341.925293 679.536377,342.636993 677.941711,343.613525 
	C677.549683,343.251556 677.157715,342.889557 676.765747,342.527557 
	C678.660706,327.442719 680.555664,312.357880 682.544128,296.528290 
	C674.255798,296.528290 666.951355,296.668243 659.656433,296.465759 
	C656.308044,296.372772 655.064392,297.525085 654.626709,300.882721 
	C651.547791,324.500854 648.275757,348.093811 645.051636,371.692963 
	C643.383240,383.904572 641.719788,396.117096 639.950439,408.314178 
	C639.780701,409.484741 638.873108,410.548279 638.308044,411.661530 
	C637.311401,410.956635 635.842163,410.474365 635.389526,409.513275 
	C629.158386,396.282715 623.067261,382.986176 616.787415,369.371033 
	C620.045593,367.815887 622.920410,366.563568 625.686279,365.104675 
	C648.180298,353.239563 652.009888,321.320496 632.735718,305.605835 
	C624.351318,298.769806 614.309387,296.570190 603.741516,296.493866 
	C589.910095,296.393951 576.077454,296.444519 562.245361,296.436371 
	C554.178711,296.431610 554.267517,296.448730 553.183105,304.575073 
	C549.306519,333.625885 545.386475,362.671051 541.386475,391.705048 
	C541.166748,393.300262 540.074402,394.775238 539.388184,396.306183 
	C538.337158,394.854950 536.734314,393.546234 536.317200,391.931274 
	C529.073181,363.886505 522.098511,335.771881 514.790710,307.744019 
	C511.307098,294.383209 513.980042,296.729919 500.696472,296.454651 
	C499.030640,296.420105 497.352203,296.574738 495.699249,296.424988 
	C491.712921,296.063904 489.280762,297.679596 487.478363,301.354095 
	C482.859436,310.770752 477.881744,320.011780 473.029175,329.313477 
	C462.014282,350.427277 451.019501,371.551727 439.893402,392.606750 
	C439.189148,393.939514 437.427490,394.713501 436.157745,395.747406 
	C435.885590,394.559784 435.246033,393.323578 435.395569,392.191681 
	C438.405212,369.410156 441.526733,346.643463 444.577179,323.867279 
	C445.763428,315.010193 446.830597,306.137207 448.043640,296.546936 
	C440.783325,296.546936 434.151703,296.756195 427.541534,296.470184 
	C423.432556,296.292419 420.859924,297.630249 418.535065,301.145844 
	C406.959137,318.650818 395.116608,335.979736 383.323273,353.340302 
	C382.168854,355.039642 380.709839,356.532013 378.774872,358.864655 
	C377.536285,356.228729 376.623169,354.533051 375.921570,352.753937 
	C369.263245,335.870239 362.516846,319.019226 356.099640,302.043976 
	C354.589020,298.047913 352.746124,296.288269 348.228882,296.396515 
	C334.904114,296.715851 321.565338,296.650787 308.236176,296.454224 
	C304.572815,296.400208 302.537811,297.805450 300.617493,300.764038 
	C293.546082,311.658813 286.238708,322.401123 278.954102,333.156097 
	C277.631561,335.108704 275.999207,336.851471 273.989136,339.334351 
	C272.698151,336.753693 271.837189,335.183258 271.109375,333.553345 
	C266.356720,322.909851 261.554016,312.287445 256.943329,301.582520 
	C255.372589,297.935608 253.224060,296.295837 249.005264,296.389893 
	C236.512589,296.668457 224.001480,296.748444 211.514755,296.357635 
	C206.509705,296.201019 204.438309,297.904785 204.410294,302.673431 
	C204.405441,303.500336 204.221405,304.327057 204.109375,305.152405 
	C201.645706,323.304779 199.211212,341.461243 196.675919,359.603607 
	C196.366486,361.817932 195.514450,363.956421 194.913879,366.130066 
	C194.403427,366.098602 193.892975,366.067169 193.382523,366.035706 
	C191.634094,363.239044 189.769638,360.507538 188.156540,357.634888 
	C179.349045,341.950287 169.653168,326.668427 162.154007,310.377472 
	C156.706299,298.543060 149.184204,294.825989 136.977859,296.365601 
	C132.207779,296.967224 130.527023,298.265411 129.923676,302.925934 
	C126.139259,332.158600 122.111717,361.360168 118.041367,390.554810 
	C117.769882,392.502045 116.484650,394.307953 115.670929,396.179596 
	C114.601936,394.516876 113.490738,392.878998 112.488167,391.177155 
	C112.162453,390.624237 112.115517,389.905396 111.949997,389.260132 
	C105.041679,362.328033 98.231682,335.370209 91.186821,308.473907 
	C87.546730,294.576538 90.814133,297.034241 75.642265,296.363892 
	C69.042793,296.072327 65.587845,298.321381 62.566139,304.204987 
	C44.002342,340.350922 25.013134,376.278381 6.185187,412.288818 
	C4.820980,414.898041 3.612724,417.588745 1.943540,421.046112 
	C12.570203,421.046112 22.347351,421.145264 32.116611,420.912842 
	C33.259071,420.885681 34.846333,419.245422 35.403824,417.987823 
	C43.693302,399.288574 58.707302,388.619598 77.421448,382.106232 
	C81.816277,380.576660 83.253510,381.923370 84.085045,386.176422 
	C86.097435,396.469177 88.711960,406.644928 90.685898,416.944092 
	C91.343582,420.375610 92.786797,421.161652 95.991241,421.123383 
	C109.488289,420.962158 122.993317,420.822021 136.484039,421.146759 
	C140.902100,421.253082 142.143845,419.679626 142.639954,415.648407 
	C144.572418,399.946442 146.782898,384.278412 148.931595,368.603485 
	C149.811020,362.187897 150.796310,355.786804 151.947098,347.918365 
	C153.660431,350.757416 154.551437,352.129028 155.340317,353.557037 
	C164.761810,370.611328 174.115402,387.703400 183.608856,404.717468 
	C186.665588,410.195709 188.893097,417.662079 193.655563,420.246246 
	C198.706177,422.986816 206.320068,421.003479 212.814514,421.082855 
	C212.981140,421.084900 213.213165,421.153870 213.304611,421.070648 
	C214.544403,419.942352 216.682404,418.916138 216.855499,417.630127 
	C221.075943,386.273071 225.075211,354.886353 229.150604,323.509644 
	C229.632095,319.802612 230.324371,316.122955 230.918945,312.430603 
	C232.617645,313.753326 233.355042,315.166412 233.978790,316.628021 
	C240.316803,331.479889 246.292633,346.499908 253.112106,361.126770 
	C256.319794,368.006805 256.827118,374.538116 255.642212,381.832214 
	C253.566803,394.608154 252.135971,407.488831 250.340668,421.038330 
	C259.134003,421.038330 267.413513,421.193146 275.672272,420.849182 
	C276.746887,420.804474 278.398529,418.290497 278.622559,416.751343 
	C280.277252,405.382080 281.469330,393.944733 283.171173,382.583405 
	C283.875214,377.883331 284.417999,372.652252 286.843689,368.803009 
	C298.563263,350.205688 310.910767,332.004425 322.984161,313.628906 
	C323.666901,312.589783 323.892426,311.250183 324.330750,310.050446 
	C324.990570,310.595947 325.650391,311.141479 326.310211,311.686981 
	C321.363922,347.893829 316.417633,384.100647 311.411835,420.743195 
	C321.107056,420.743195 329.853058,420.743195 339.105408,420.743195 
	C342.154633,398.307678 345.187317,375.993591 348.378174,352.515930 
	C349.604248,354.633728 350.357330,355.664703 350.838959,356.809875 
	C354.130432,364.636139 357.333496,372.499603 360.630005,380.323700 
	C362.496826,384.754547 363.357666,390.900299 366.728790,393.054718 
	C370.328949,395.355560 376.366425,393.683563 381.310730,394.095886 
	C384.645569,394.373962 386.417023,392.899628 388.119690,390.269409 
	C394.907898,379.783539 401.889130,369.422516 408.815308,359.026245 
	C409.656494,357.763641 410.597260,356.567413 411.491882,355.340424 
	C411.841797,355.508636 412.191711,355.676880 412.541626,355.845093 
	C409.674225,377.362488 406.806854,398.879883 403.850128,421.067566 
	C406.464905,421.067566 408.253418,421.067749 410.041931,421.067566 
	C423.540771,421.066101 437.042633,420.905060 450.536530,421.162750 
	C454.459076,421.237640 456.355377,419.972717 458.093384,416.448364 
	C467.885773,396.591614 486.208527,387.719086 505.815826,379.460297 
	C506.393402,381.568268 506.832916,382.949951 507.148499,384.359406 
	C509.585052,395.240265 512.071899,406.110901 514.368530,417.021454 
	C514.991455,419.980896 516.272949,421.138550 519.402771,421.107330 
	C533.400085,420.967834 547.400940,420.962860 561.397705,421.136169 
	C564.625732,421.176117 565.692688,420.088379 566.075439,416.966797 
	C567.412781,406.060638 568.970825,395.179626 570.582520,384.309479 
	C572.348450,372.400208 572.416626,372.589844 584.477478,372.472046 
	C588.536194,372.432404 590.416077,374.023102 591.833984,377.578735 
	C597.136230,390.875214 602.735229,404.053192 608.069519,417.337250 
	C609.149048,420.025726 610.529175,421.165558 613.557678,421.137695 
	C629.721619,420.989044 645.888367,420.978088 662.052185,421.128021 
	C665.307251,421.158203 666.397705,419.931549 666.738892,416.905640 
	C667.652954,408.799377 669.392029,400.743286 669.721252,392.623413 
	C670.282104,378.791565 682.124756,374.344238 689.589233,365.524231 
	C697.145935,380.385315 704.983521,393.835754 710.899414,408.084045 
	C715.254822,418.573944 721.107849,421.755707 732.452393,421.401703 
	C763.585999,420.430145 794.770020,421.098663 825.933594,420.991394 
	C827.606995,420.985626 830.562500,420.067719 830.740356,419.151154 
	C831.965637,412.838196 832.610352,406.412567 833.542297,399.250702 
	C812.845581,399.250702 792.952698,399.250702 772.380127,399.250702 
	C773.448425,390.771637 774.636841,383.073639 775.308228,375.330811 
	C775.685547,370.979553 777.269714,369.526672 781.771179,369.631226 
	C795.762817,369.956299 809.766541,369.835327 823.764099,369.712891 
	C825.292297,369.699524 827.985474,368.770355 828.146851,367.897614 
	C829.397034,361.138397 830.157288,354.288574 831.147827,346.878357 
	C813.477539,346.878357 796.710571,346.878357 779.308777,346.878357 
	C780.413269,338.594818 781.581970,330.892029 782.405396,323.152496 
	C782.754761,319.868896 784.246765,319.175629 787.274963,319.186249 
	C813.267578,319.277557 839.260803,319.213867 865.253784,319.229248 
	C867.151001,319.230377 869.048035,319.487579 871.388367,319.658020 
	C871.064575,323.070435 870.891357,325.874084 870.520813,328.651398 
	C866.709961,357.211639 862.867188,385.767578 858.963196,415.199249 
M1231.932129,351.619507 
	C1247.459229,348.315979 1255.716064,332.322754 1250.410645,315.618988 
	C1248.255249,308.833099 1244.210571,303.479645 1237.528809,300.548889 
	C1229.156006,296.876434 1221.120605,297.777069 1213.619995,303.156830 
	C1212.223022,298.594696 1209.216187,297.921631 1199.835938,299.776978 
	C1199.835938,322.904266 1199.835938,346.096954 1199.835938,369.842224 
	C1203.285522,369.842224 1206.423828,369.613281 1209.513916,369.901398 
	C1213.206177,370.245605 1214.042236,368.603577 1213.926514,365.277924 
	C1213.722778,359.414001 1213.869629,353.537933 1213.869629,348.880249 
	C1219.952148,349.894409 1225.516602,350.822205 1231.932129,351.619507 
M1084.389893,400.499878 
	C1084.389893,413.582031 1084.389893,426.664215 1084.389893,439.863220 
	C1089.698364,439.863220 1094.223755,439.863220 1099.315674,439.863220 
	C1099.315674,433.307129 1099.315674,427.228058 1099.315674,420.798218 
	C1104.868774,420.798218 1109.862671,420.988983 1114.837158,420.761261 
	C1128.000000,420.158661 1137.369263,411.347809 1138.070801,399.137024 
	C1138.932007,384.151276 1131.929199,374.474060 1117.570679,372.871155 
	C1107.528564,371.750092 1097.287842,372.282806 1087.141357,372.438416 
	C1086.206543,372.452789 1084.572754,375.065735 1084.522217,376.515930 
	C1084.255493,384.169464 1084.392334,391.837097 1084.389893,400.499878 
M1126.238403,317.234985 
	C1121.392334,315.145569 1116.614746,312.873138 1111.677368,311.028137 
	C1108.110718,309.695374 1104.148071,309.328339 1100.723755,307.747162 
	C1098.976440,306.940369 1097.047729,304.442047 1096.988037,302.648834 
	C1096.927734,300.840698 1098.672729,298.203247 1100.361938,297.292145 
	C1102.711670,296.024750 1105.846313,295.284760 1108.466309,295.639343 
	C1113.960938,296.382904 1119.339111,297.988068 1125.377686,299.380768 
	C1126.079468,297.635956 1126.855469,295.105255 1128.074341,292.809753 
	C1130.214233,288.779663 1128.627563,286.720154 1124.818115,285.274902 
	C1116.174316,281.995605 1107.333984,281.085846 1098.344482,283.233521 
	C1088.230225,285.649933 1082.013794,293.145996 1081.515625,302.999023 
	C1081.061890,311.976471 1085.887573,318.143311 1096.312012,321.751129 
	C1098.822266,322.619904 1101.430908,323.200928 1103.978027,323.967957 
	C1107.153564,324.924255 1110.557617,325.499695 1113.385864,327.088684 
	C1115.067017,328.033112 1116.906738,330.723999 1116.727661,332.424591 
	C1116.515625,334.438171 1114.552979,337.289520 1112.730469,337.884979 
	C1109.557739,338.921631 1105.749268,339.249115 1102.498169,338.540192 
	C1096.609375,337.256104 1090.934204,334.991547 1084.740356,332.998047 
	C1083.278931,336.437164 1081.673096,340.216400 1080.111572,343.891266 
	C1089.910400,352.570404 1110.940063,354.928680 1121.896362,348.786011 
	C1133.364014,342.356659 1135.718994,327.350983 1126.238403,317.234985 
M1421.848755,299.459869 
	C1412.957031,297.421783 1404.595947,298.152740 1397.408081,304.397797 
	C1388.304688,312.307251 1385.689575,326.469940 1391.149780,337.793304 
	C1396.232788,348.334290 1408.209961,353.871674 1421.155273,351.635406 
	C1427.049072,350.617279 1432.235840,348.363739 1436.087158,342.855835 
	C1433.602539,340.086945 1431.203125,337.412933 1428.867676,334.810242 
	C1416.021729,342.272003 1405.095947,340.093079 1403.552002,329.389709 
	C1415.355225,329.389709 1427.066895,329.389709 1438.673950,329.389709 
	C1440.290161,315.116699 1434.522949,304.786377 1421.848755,299.459869 
M1173.383667,318.474274 
	C1173.269287,321.798004 1173.392334,325.150726 1172.990479,328.439301 
	C1172.189209,334.995911 1168.626465,338.516327 1163.287598,338.457336 
	C1157.924683,338.398102 1154.470825,334.893585 1154.063477,328.129852 
	C1153.664062,321.498230 1153.911255,314.827393 1153.883545,308.173737 
	C1153.871338,305.267029 1153.881470,302.360291 1153.881470,299.513550 
	C1148.582642,299.513550 1144.186523,299.513550 1139.365601,299.513550 
	C1139.365601,306.692627 1139.272705,313.484009 1139.395874,320.271454 
	C1139.489258,325.417053 1139.358643,330.641602 1140.206055,335.683380 
	C1142.093750,346.914246 1150.971680,353.347351 1162.258057,351.607361 
	C1166.345947,350.977173 1170.210083,348.895081 1174.185425,347.472198 
	C1175.762451,351.444000 1179.536011,352.246552 1187.634277,350.171112 
	C1187.634277,333.322479 1187.634277,316.450378 1187.634277,299.571045 
	C1182.741333,299.571045 1178.229736,299.571045 1173.388184,299.571045 
	C1173.388184,305.871185 1173.388184,311.677185 1173.383667,318.474274 
M1281.614868,404.137817 
	C1279.345825,394.160583 1274.198364,388.807373 1264.115723,387.741486 
	C1258.781982,387.177643 1252.972168,387.478485 1247.877808,389.031219 
	C1236.516602,392.494049 1237.311157,393.624298 1242.935425,402.951965 
	C1243.091797,403.211304 1243.453003,403.347107 1243.722778,403.534943 
	C1259.565430,397.211395 1267.904053,398.964355 1266.965088,407.873291 
	C1259.971558,408.786194 1252.931274,409.011292 1246.292969,410.761017 
	C1239.225342,412.623901 1235.822632,418.474518 1236.012573,425.545868 
	C1236.203979,432.681488 1239.941040,437.639709 1247.030151,439.904266 
	C1254.509888,442.293610 1261.414062,440.755005 1267.734375,436.237854 
	C1269.504517,440.606720 1273.157227,441.367706 1281.721680,439.293304 
	C1281.721680,427.923096 1281.721680,416.470001 1281.614868,404.137817 
M1308.475098,328.096344 
	C1308.862183,320.364197 1307.494995,313.132385 1302.192993,307.131622 
	C1294.022705,297.884613 1279.742065,295.736816 1268.867310,302.044220 
	C1258.006348,308.343689 1253.264038,322.574921 1257.779297,335.317078 
	C1261.907837,346.967773 1272.399048,353.145386 1285.969116,351.916229 
	C1298.164429,350.811646 1306.234497,342.534851 1308.475098,328.096344 
M1229.986694,403.672363 
	C1226.243896,394.389008 1219.382935,389.014587 1209.525879,387.510895 
	C1195.561157,385.380554 1182.782959,394.233948 1179.788086,408.039612 
	C1176.681885,422.358551 1184.034302,435.648987 1197.297485,439.690063 
	C1211.447632,444.001373 1225.021362,437.773010 1229.923706,424.493652 
	C1232.353149,417.912720 1232.323486,411.145782 1229.986694,403.672363 
M1352.632935,393.007416 
	C1357.358154,405.627930 1362.057983,418.257965 1366.816406,430.865906 
	C1370.524170,440.689514 1370.555542,440.563904 1380.994019,440.462799 
	C1384.165161,440.432098 1385.718384,439.307739 1386.824097,436.337738 
	C1391.119263,424.800476 1395.681519,413.362762 1400.125977,401.880890 
	C1401.786011,397.592285 1403.395630,393.284210 1405.330444,388.189392 
	C1401.634033,388.189392 1398.829956,388.427704 1396.083740,388.131531 
	C1392.301392,387.723663 1390.365601,389.143890 1389.179199,392.798645 
	C1387.126221,399.122528 1384.596191,405.293030 1382.211548,411.506897 
	C1381.073608,414.472198 1379.810425,417.389404 1378.561279,420.432373 
	C1377.688232,419.867645 1377.484253,419.812256 1377.440063,419.696106 
	C1373.952026,410.524078 1370.546631,401.319489 1366.930298,392.198517 
	C1366.333374,390.693298 1364.933472,388.572052 1363.702271,388.424591 
	C1359.686401,387.943542 1355.576782,388.244293 1350.958252,388.244293 
	C1351.601196,390.163574 1351.958496,391.230438 1352.632935,393.007416 
M1323.964478,434.978607 
	C1323.077881,432.232910 1322.191162,429.487213 1321.347412,426.874207 
	C1313.442627,428.373871 1310.276245,427.524445 1310.005249,423.371338 
	C1309.533936,416.148315 1309.874146,408.872406 1309.874146,401.052368 
	C1313.882446,401.052368 1317.455444,401.052368 1321.177734,401.052368 
	C1321.177734,396.761719 1321.177734,393.060333 1321.177734,388.800842 
	C1317.186279,388.800842 1313.608887,388.800842 1309.450317,388.800842 
	C1309.450317,384.325562 1309.450317,380.408203 1309.450317,376.460083 
	C1304.455200,376.460083 1300.067139,376.460083 1295.122437,376.460083 
	C1295.122437,380.737732 1295.122437,384.652191 1295.122437,388.664978 
	C1292.530396,388.991058 1290.475830,389.249512 1288.452026,389.504120 
	C1288.452026,393.501068 1288.452026,397.077972 1288.452026,401.278687 
	C1295.529541,399.219757 1295.371216,403.476868 1295.171631,408.111481 
	C1294.964111,412.927032 1295.051514,417.760040 1295.144531,422.582825 
	C1295.422119,436.993347 1308.009766,445.162384 1321.221802,439.395325 
	C1322.491699,438.841034 1323.181519,436.957764 1323.964478,434.978607 
M1356.838013,299.173798 
	C1354.418213,299.854034 1351.998413,300.534302 1349.578735,301.214661 
	C1348.778076,311.360046 1348.778076,311.360046 1356.934937,313.286469 
	C1356.934937,320.444885 1356.815552,327.735687 1356.963013,335.021118 
	C1357.182861,345.881775 1363.956299,352.212952 1374.824341,351.947296 
	C1385.965454,351.675018 1387.669922,349.070251 1383.358398,338.867767 
	C1383.250854,338.613403 1382.865845,338.476288 1382.601440,338.296265 
	C1375.210205,340.199615 1371.843384,339.296600 1371.476929,334.460114 
	C1370.942383,327.403809 1371.339600,320.276917 1371.339600,312.843811 
	C1375.424072,312.657990 1379.142944,312.488800 1382.712891,312.326385 
	C1384.643188,301.451385 1384.399048,301.249451 1374.622559,300.127045 
	C1373.345703,299.980438 1371.549561,297.978088 1371.299561,296.598602 
	C1370.782104,293.744446 1371.143555,290.730896 1371.143555,287.480499 
	C1366.161865,287.480499 1361.800659,287.480499 1356.966064,287.480499 
	C1356.966064,291.316925 1356.966064,294.780304 1356.838013,299.173798 
M1165.234253,403.415894 
	C1168.697021,402.503174 1172.159668,401.590454 1175.561279,400.693817 
	C1175.561279,396.303436 1175.561279,391.915436 1175.561279,386.014008 
	C1169.844971,388.188385 1165.033813,390.018463 1160.086426,391.900391 
	C1159.977417,387.968597 1156.833130,387.763428 1153.324463,388.101501 
	C1152.499023,388.181030 1151.646240,388.208313 1150.828613,388.095520 
	C1147.192871,387.593994 1145.775879,388.934387 1145.925903,392.775940 
	C1146.205322,399.930023 1146.025146,407.102203 1146.028809,414.266846 
	C1146.033325,422.735107 1146.029907,431.203369 1146.029907,439.965637 
	C1150.924072,439.965637 1155.330933,439.965637 1160.185181,439.965637 
	C1160.296753,437.810333 1160.457764,436.029449 1160.468750,434.247681 
	C1160.509888,427.583099 1160.052368,420.874542 1160.693481,414.270996 
	C1161.037720,410.724670 1163.237427,407.358490 1165.234253,403.415894 
M1344.036133,312.404846 
	C1344.881836,311.469025 1346.301147,310.619812 1346.458130,309.580078 
	C1346.826660,307.136841 1346.448853,304.591827 1346.635254,302.107697 
	C1346.906006,298.499023 1344.905762,297.488037 1342.037354,298.378387 
	C1338.168091,299.579315 1334.469116,301.329193 1330.697510,302.843384 
	C1329.194702,298.615234 1326.257324,297.916870 1317.137939,299.800232 
	C1317.137939,316.620880 1317.137939,333.499939 1317.137939,350.555786 
	C1321.813232,350.555786 1326.181763,350.555786 1331.031372,350.555786 
	C1331.031372,342.042664 1330.878418,333.908722 1331.072876,325.783081 
	C1331.281738,317.054138 1334.901978,313.238434 1344.036133,312.404846 
M1331.312012,408.500214 
	C1331.312134,417.808197 1331.212158,427.118469 1331.425537,436.421600 
	C1331.455933,437.744202 1332.893188,440.045013 1333.876953,440.156891 
	C1337.726562,440.594635 1341.655273,440.335724 1345.902344,440.335724 
	C1345.902344,425.232574 1345.904053,410.954346 1345.900391,396.676117 
	C1345.899902,394.847839 1346.160400,392.951965 1345.753296,391.215668 
	C1345.491577,390.099426 1344.291870,388.437683 1343.404053,388.365936 
	C1339.525391,388.052490 1335.607056,388.231140 1331.310669,388.231140 
	C1331.310669,395.244965 1331.310669,401.372742 1331.312012,408.500214 
M999.804138,376.820831 
	C1008.783447,373.588715 1010.299683,367.674988 1004.176208,359.358215 
	C1006.545898,355.619965 1007.686401,351.433167 1004.309875,347.929810 
	C999.337402,342.770508 992.908752,345.439270 987.223755,345.013214 
	C986.863220,345.968994 986.650879,346.273407 986.646912,346.580475 
	C986.566772,352.724152 986.474854,358.868011 986.457092,365.012054 
	C986.421448,377.338867 986.439270,377.338928 999.804138,376.820831 
M1029.650146,345.732117 
	C1027.681641,349.144592 1025.713013,352.557037 1023.751465,355.957397 
	C1018.886597,353.152466 1020.641663,343.118652 1011.297791,345.401550 
	C1011.825256,346.650208 1012.189697,347.728729 1012.714844,348.722260 
	C1016.954224,356.742462 1022.387390,364.351715 1020.771851,374.288940 
	C1020.656860,374.995880 1022.732971,376.058990 1023.790344,376.956482 
	C1024.676270,375.869843 1026.452393,374.647217 1026.310303,373.717621 
	C1024.914185,364.580017 1029.210327,357.316376 1033.597778,350.024323 
	C1034.431885,348.637970 1035.070190,347.133759 1036.015747,345.252228 
	C1033.756470,345.252228 1032.004639,345.252228 1029.650146,345.732117 
M1333.644165,366.063263 
	C1329.318726,369.983002 1328.485840,374.269409 1331.280273,378.227356 
	C1333.860229,381.881439 1339.631470,382.993988 1343.803833,380.641357 
	C1347.259521,378.692871 1348.715820,373.694519 1346.984863,369.723999 
	C1345.041138,365.265778 1340.442871,363.809265 1333.644165,366.063263 
z"/>
<path fill="#F97D2B" opacity="1.000000" stroke="none" 
	d="
M1458.000000,420.533875 
	C1457.391113,422.130585 1456.665405,423.214447 1456.191284,424.399017 
	C1451.559204,435.973145 1441.849609,441.840973 1428.889893,440.846313 
	C1417.383667,439.963165 1408.510986,432.146088 1405.908936,420.599518 
	C1403.207275,408.610535 1408.041992,396.745117 1418.040527,390.826172 
	C1427.851318,385.018311 1441.728516,386.049042 1449.553467,393.920258 
	C1452.820068,397.206085 1454.759033,401.811768 1457.650879,405.908691 
	C1458.000000,410.689240 1458.000000,415.378510 1458.000000,420.533875 
M1423.552856,403.010254 
	C1418.767334,408.375763 1418.830566,414.571869 1421.111938,420.755127 
	C1423.802246,428.046478 1432.704468,430.244812 1438.879272,425.492554 
	C1444.179077,421.413513 1445.394897,410.930267 1441.254761,405.011108 
	C1437.337646,399.410919 1430.977173,398.482147 1423.552856,403.010254 
z"/>
<path fill="#FA7B25" opacity="1.000000" stroke="none" 
	d="
M858.998291,414.761993 
	C862.867188,385.767578 866.709961,357.211639 870.520813,328.651398 
	C870.891357,325.874084 871.064575,323.070435 871.388367,319.658020 
	C869.048035,319.487579 867.151001,319.230377 865.253784,319.229248 
	C839.260803,319.213867 813.267578,319.277557 787.274963,319.186249 
	C784.246765,319.175629 782.754761,319.868896 782.405396,323.152496 
	C781.581970,330.892029 780.413269,338.594818 779.308777,346.878357 
	C796.710571,346.878357 813.477539,346.878357 831.147827,346.878357 
	C830.157288,354.288574 829.397034,361.138397 828.146851,367.897614 
	C827.985474,368.770355 825.292297,369.699524 823.764099,369.712891 
	C809.766541,369.835327 795.762817,369.956299 781.771179,369.631226 
	C777.269714,369.526672 775.685547,370.979553 775.308228,375.330811 
	C774.636841,383.073639 773.448425,390.771637 772.380127,399.250702 
	C792.952698,399.250702 812.845581,399.250702 833.542297,399.250702 
	C832.610352,406.412567 831.965637,412.838196 830.740356,419.151154 
	C830.562500,420.067719 827.606995,420.985626 825.933594,420.991394 
	C794.770020,421.098663 763.585999,420.430145 732.452393,421.401703 
	C721.107849,421.755707 715.254822,418.573944 710.899414,408.084045 
	C704.983521,393.835754 697.145935,380.385315 689.589233,365.524231 
	C682.124756,374.344238 670.282104,378.791565 669.721252,392.623413 
	C669.392029,400.743286 667.652954,408.799377 666.738892,416.905640 
	C666.397705,419.931549 665.307251,421.158203 662.052185,421.128021 
	C645.888367,420.978088 629.721619,420.989044 613.557678,421.137695 
	C610.529175,421.165558 609.149048,420.025726 608.069519,417.337250 
	C602.735229,404.053192 597.136230,390.875214 591.833984,377.578735 
	C590.416077,374.023102 588.536194,372.432404 584.477478,372.472046 
	C572.416626,372.589844 572.348450,372.400208 570.582520,384.309479 
	C568.970825,395.179626 567.412781,406.060638 566.075439,416.966797 
	C565.692688,420.088379 564.625732,421.176117 561.397705,421.136169 
	C547.400940,420.962860 533.400085,420.967834 519.402771,421.107330 
	C516.272949,421.138550 514.991455,419.980896 514.368530,417.021454 
	C512.071899,406.110901 509.585052,395.240265 507.148499,384.359406 
	C506.832916,382.949951 506.393402,381.568268 505.815826,379.460297 
	C486.208527,387.719086 467.885773,396.591614 458.093384,416.448364 
	C456.355377,419.972717 454.459076,421.237640 450.536530,421.162750 
	C437.042633,420.905060 423.540771,421.066101 410.041931,421.067566 
	C408.253418,421.067749 406.464905,421.067566 403.850128,421.067566 
	C406.806854,398.879883 409.674225,377.362488 412.541626,355.845093 
	C412.191711,355.676880 411.841797,355.508636 411.491882,355.340424 
	C410.597260,356.567413 409.656494,357.763641 408.815308,359.026245 
	C401.889130,369.422516 394.907898,379.783539 388.119690,390.269409 
	C386.417023,392.899628 384.645569,394.373962 381.310730,394.095886 
	C376.366425,393.683563 370.328949,395.355560 366.728790,393.054718 
	C363.357666,390.900299 362.496826,384.754547 360.630005,380.323700 
	C357.333496,372.499603 354.130432,364.636139 350.838959,356.809875 
	C350.357330,355.664703 349.604248,354.633728 348.378174,352.515930 
	C345.187317,375.993591 342.154633,398.307678 339.105408,420.743195 
	C329.853058,420.743195 321.107056,420.743195 311.411835,420.743195 
	C316.417633,384.100647 321.363922,347.893829 326.310211,311.686981 
	C325.650391,311.141479 324.990570,310.595947 324.330750,310.050446 
	C323.892426,311.250183 323.666901,312.589783 322.984161,313.628906 
	C310.910767,332.004425 298.563263,350.205688 286.843689,368.803009 
	C284.417999,372.652252 283.875214,377.883331 283.171173,382.583405 
	C281.469330,393.944733 280.277252,405.382080 278.622559,416.751343 
	C278.398529,418.290497 276.746887,420.804474 275.672272,420.849182 
	C267.413513,421.193146 259.134003,421.038330 250.340668,421.038330 
	C252.135971,407.488831 253.566803,394.608154 255.642212,381.832214 
	C256.827118,374.538116 256.319794,368.006805 253.112106,361.126770 
	C246.292633,346.499908 240.316803,331.479889 233.978790,316.628021 
	C233.355042,315.166412 232.617645,313.753326 230.918945,312.430603 
	C230.324371,316.122955 229.632095,319.802612 229.150604,323.509644 
	C225.075211,354.886353 221.075943,386.273071 216.855499,417.630127 
	C216.682404,418.916138 214.544403,419.942352 213.304611,421.070648 
	C213.213165,421.153870 212.981140,421.084900 212.814514,421.082855 
	C206.320068,421.003479 198.706177,422.986816 193.655563,420.246246 
	C188.893097,417.662079 186.665588,410.195709 183.608856,404.717468 
	C174.115402,387.703400 164.761810,370.611328 155.340317,353.557037 
	C154.551437,352.129028 153.660431,350.757416 151.947098,347.918365 
	C150.796310,355.786804 149.811020,362.187897 148.931595,368.603485 
	C146.782898,384.278412 144.572418,399.946442 142.639954,415.648407 
	C142.143845,419.679626 140.902100,421.253082 136.484039,421.146759 
	C122.993317,420.822021 109.488289,420.962158 95.991241,421.123383 
	C92.786797,421.161652 91.343582,420.375610 90.685898,416.944092 
	C88.711960,406.644928 86.097435,396.469177 84.085045,386.176422 
	C83.253510,381.923370 81.816277,380.576660 77.421448,382.106232 
	C58.707302,388.619598 43.693302,399.288574 35.403824,417.987823 
	C34.846333,419.245422 33.259071,420.885681 32.116611,420.912842 
	C22.347351,421.145264 12.570203,421.046112 1.943540,421.046112 
	C3.612724,417.588745 4.820980,414.898041 6.185187,412.288818 
	C25.013134,376.278381 44.002342,340.350922 62.566139,304.204987 
	C65.587845,298.321381 69.042793,296.072327 75.642265,296.363892 
	C90.814133,297.034241 87.546730,294.576538 91.186821,308.473907 
	C98.231682,335.370209 105.041679,362.328033 111.949997,389.260132 
	C112.115517,389.905396 112.162453,390.624237 112.488167,391.177155 
	C113.490738,392.878998 114.601936,394.516876 115.670929,396.179596 
	C116.484650,394.307953 117.769882,392.502045 118.041367,390.554810 
	C122.111717,361.360168 126.139259,332.158600 129.923676,302.925934 
	C130.527023,298.265411 132.207779,296.967224 136.977859,296.365601 
	C149.184204,294.825989 156.706299,298.543060 162.154007,310.377472 
	C169.653168,326.668427 179.349045,341.950287 188.156540,357.634888 
	C189.769638,360.507538 191.634094,363.239044 193.382523,366.035706 
	C193.892975,366.067169 194.403427,366.098602 194.913879,366.130066 
	C195.514450,363.956421 196.366486,361.817932 196.675919,359.603607 
	C199.211212,341.461243 201.645706,323.304779 204.109375,305.152405 
	C204.221405,304.327057 204.405441,303.500336 204.410294,302.673431 
	C204.438309,297.904785 206.509705,296.201019 211.514755,296.357635 
	C224.001480,296.748444 236.512589,296.668457 249.005264,296.389893 
	C253.224060,296.295837 255.372589,297.935608 256.943329,301.582520 
	C261.554016,312.287445 266.356720,322.909851 271.109375,333.553345 
	C271.837189,335.183258 272.698151,336.753693 273.989136,339.334351 
	C275.999207,336.851471 277.631561,335.108704 278.954102,333.156097 
	C286.238708,322.401123 293.546082,311.658813 300.617493,300.764038 
	C302.537811,297.805450 304.572815,296.400208 308.236176,296.454224 
	C321.565338,296.650787 334.904114,296.715851 348.228882,296.396515 
	C352.746124,296.288269 354.589020,298.047913 356.099640,302.043976 
	C362.516846,319.019226 369.263245,335.870239 375.921570,352.753937 
	C376.623169,354.533051 377.536285,356.228729 378.774872,358.864655 
	C380.709839,356.532013 382.168854,355.039642 383.323273,353.340302 
	C395.116608,335.979736 406.959137,318.650818 418.535065,301.145844 
	C420.859924,297.630249 423.432556,296.292419 427.541534,296.470184 
	C434.151703,296.756195 440.783325,296.546936 448.043640,296.546936 
	C446.830597,306.137207 445.763428,315.010193 444.577179,323.867279 
	C441.526733,346.643463 438.405212,369.410156 435.395569,392.191681 
	C435.246033,393.323578 435.885590,394.559784 436.157745,395.747406 
	C437.427490,394.713501 439.189148,393.939514 439.893402,392.606750 
	C451.019501,371.551727 462.014282,350.427277 473.029175,329.313477 
	C477.881744,320.011780 482.859436,310.770752 487.478363,301.354095 
	C489.280762,297.679596 491.712921,296.063904 495.699249,296.424988 
	C497.352203,296.574738 499.030640,296.420105 500.696472,296.454651 
	C513.980042,296.729919 511.307098,294.383209 514.790710,307.744019 
	C522.098511,335.771881 529.073181,363.886505 536.317200,391.931274 
	C536.734314,393.546234 538.337158,394.854950 539.388184,396.306183 
	C540.074402,394.775238 541.166748,393.300262 541.386475,391.705048 
	C545.386475,362.671051 549.306519,333.625885 553.183105,304.575073 
	C554.267517,296.448730 554.178711,296.431610 562.245361,296.436371 
	C576.077454,296.444519 589.910095,296.393951 603.741516,296.493866 
	C614.309387,296.570190 624.351318,298.769806 632.735718,305.605835 
	C652.009888,321.320496 648.180298,353.239563 625.686279,365.104675 
	C622.920410,366.563568 620.045593,367.815887 616.787415,369.371033 
	C623.067261,382.986176 629.158386,396.282715 635.389526,409.513275 
	C635.842163,410.474365 637.311401,410.956635 638.308044,411.661499 
	C638.873108,410.548279 639.780701,409.484741 639.950439,408.314178 
	C641.719788,396.117096 643.383240,383.904572 645.051636,371.692963 
	C648.275757,348.093811 651.547791,324.500854 654.626709,300.882721 
	C655.064392,297.525085 656.308044,296.372772 659.656433,296.465759 
	C666.951355,296.668243 674.255798,296.528290 682.544128,296.528290 
	C680.555664,312.357880 678.660706,327.442719 676.765747,342.527557 
	C677.157715,342.889557 677.549683,343.251556 677.941711,343.613525 
	C679.536377,342.636993 681.394165,341.925293 682.685242,340.643036 
	C696.046143,327.373840 709.405579,314.100220 722.538940,300.607391 
	C725.358215,297.710938 728.250427,296.518494 732.178894,296.520905 
	C798.506470,296.561584 864.834045,296.519104 931.161621,296.516479 
	C932.591797,296.516418 934.021912,296.768921 936.027893,296.957825 
	C934.950378,304.483185 933.942871,311.519928 932.859680,319.085114 
	C921.777893,319.085114 910.856018,319.085114 899.535828,319.085114 
	C897.963989,330.738220 896.438110,341.896637 894.957458,353.061066 
	C892.155029,374.192169 889.329651,395.320465 886.640686,416.466095 
	C886.206360,419.882141 885.031311,421.332428 881.302002,421.177307 
	C873.861633,420.867920 866.399414,421.085663 858.496155,421.085663 
	C858.683655,418.722382 858.823425,416.960815 858.998291,414.761993 
M749.455017,363.030029 
	C750.124329,358.254791 750.806335,353.481293 751.460388,348.703979 
	C753.219421,335.856689 755.034607,323.016235 756.633057,310.148895 
	C756.834412,308.528046 755.870483,306.762451 755.446472,305.063934 
	C754.017517,305.624542 752.193542,305.801239 751.219299,306.803772 
	C738.230896,320.168640 725.327637,333.617188 712.536072,347.170380 
	C711.654297,348.104645 711.085876,350.422394 711.620178,351.443512 
	C720.718933,368.832275 729.989624,386.131531 739.337341,403.388245 
	C739.844604,404.324677 741.360779,404.714661 742.407288,405.359009 
	C742.903748,404.381348 743.701355,403.447449 743.850769,402.419342 
	C745.715820,389.585663 747.486816,376.738281 749.455017,363.030029 
M575.449219,345.759155 
	C575.449219,347.186737 575.449219,348.614319 575.449219,351.182983 
	C585.676636,350.496735 595.676392,350.577271 605.386169,348.938934 
	C613.300476,347.603516 617.525574,340.275696 617.078247,332.097260 
	C616.734619,325.815643 612.171326,320.128296 605.570129,319.646179 
	C596.863159,319.010315 588.074646,319.489838 579.013794,319.489838 
	C577.858093,328.168915 576.743225,336.541351 575.449219,345.759155 
M56.625969,378.804321 
	C60.824772,377.772400 64.999298,376.625885 69.226982,375.730286 
	C81.251762,373.182922 81.338158,373.207092 78.837662,361.140869 
	C77.204254,353.258820 75.304764,345.431885 73.524460,337.580292 
	C73.103287,337.533600 72.682114,337.486938 72.260941,337.440277 
	C65.556519,351.302979 58.852089,365.165710 51.774605,379.799774 
	C53.971565,379.353912 54.932442,379.158905 56.625969,378.804321 
M500.608032,352.881134 
	C499.411163,347.561005 498.214325,342.240875 496.701569,335.516602 
	C489.486206,350.507538 482.869690,364.254364 476.020996,378.483490 
	C484.558197,376.560608 492.106964,374.752228 499.706970,373.194061 
	C503.508087,372.414825 504.614227,370.583801 503.601929,366.837769 
	C502.435272,362.520538 501.710236,358.083984 500.608032,352.881134 
z"/>
<path fill="#F77C2A" opacity="1.000000" stroke="none" 
	d="
M1231.506592,351.684753 
	C1225.516602,350.822205 1219.952148,349.894409 1213.869629,348.880249 
	C1213.869629,353.537933 1213.722778,359.414001 1213.926514,365.277924 
	C1214.042236,368.603577 1213.206177,370.245605 1209.513916,369.901398 
	C1206.423828,369.613281 1203.285522,369.842224 1199.835938,369.842224 
	C1199.835938,346.096954 1199.835938,322.904266 1199.835938,299.776978 
	C1209.216187,297.921631 1212.223022,298.594696 1213.619995,303.156830 
	C1221.120605,297.777069 1229.156006,296.876434 1237.528809,300.548889 
	C1244.210571,303.479645 1248.255249,308.833099 1250.410645,315.618988 
	C1255.716064,332.322754 1247.459229,348.315979 1231.506592,351.684753 
M1218.522583,313.912292 
	C1213.613159,318.926239 1212.220703,326.640961 1215.204590,332.671661 
	C1217.011353,336.323334 1219.779907,338.699890 1224.028198,339.037781 
	C1229.435425,339.467865 1233.486084,337.153503 1235.633545,332.337769 
	C1238.305664,326.344940 1237.284424,318.702179 1233.263550,314.602661 
	C1229.688965,310.958191 1225.029907,310.572235 1218.522583,313.912292 
z"/>
<path fill="#F97C29" opacity="1.000000" stroke="none" 
	d="
M1084.389526,399.999847 
	C1084.392334,391.837097 1084.255493,384.169464 1084.522217,376.515930 
	C1084.572754,375.065735 1086.206543,372.452789 1087.141357,372.438416 
	C1097.287842,372.282806 1107.528564,371.750092 1117.570679,372.871155 
	C1131.929199,374.474060 1138.932007,384.151276 1138.070801,399.137024 
	C1137.369263,411.347809 1128.000000,420.158661 1114.837158,420.761261 
	C1109.862671,420.988983 1104.868774,420.798218 1099.315674,420.798218 
	C1099.315674,427.228058 1099.315674,433.307129 1099.315674,439.863220 
	C1094.223755,439.863220 1089.698364,439.863220 1084.389893,439.863220 
	C1084.389893,426.664215 1084.389893,413.582031 1084.389526,399.999847 
M1103.692627,407.770813 
	C1107.322632,407.575043 1111.018066,407.741547 1114.567505,407.099792 
	C1120.075684,406.103973 1122.867676,402.233063 1122.964966,396.425903 
	C1123.059692,390.768860 1120.723877,386.999512 1115.143921,385.964630 
	C1110.062500,385.022217 1104.762451,385.259277 1099.061890,384.949432 
	C1099.061890,392.294678 1098.912842,398.729004 1099.227173,405.140625 
	C1099.272827,406.072662 1101.534912,406.896088 1103.692627,407.770813 
z"/>
<path fill="#F87D2B" opacity="1.000000" stroke="none" 
	d="
M1126.505371,317.475830 
	C1135.718994,327.350983 1133.364014,342.356659 1121.896362,348.786011 
	C1110.940063,354.928680 1089.910400,352.570404 1080.111572,343.891266 
	C1081.673096,340.216400 1083.278931,336.437164 1084.740356,332.998047 
	C1090.934204,334.991547 1096.609375,337.256104 1102.498169,338.540192 
	C1105.749268,339.249115 1109.557739,338.921631 1112.730469,337.884979 
	C1114.552979,337.289520 1116.515625,334.438171 1116.727661,332.424591 
	C1116.906738,330.723999 1115.067017,328.033112 1113.385864,327.088684 
	C1110.557617,325.499695 1107.153564,324.924255 1103.978027,323.967957 
	C1101.430908,323.200928 1098.822266,322.619904 1096.312012,321.751129 
	C1085.887573,318.143311 1081.061890,311.976471 1081.515625,302.999023 
	C1082.013794,293.145996 1088.230225,285.649933 1098.344482,283.233521 
	C1107.333984,281.085846 1116.174316,281.995605 1124.818115,285.274902 
	C1128.627563,286.720154 1130.214233,288.779663 1128.074341,292.809753 
	C1126.855469,295.105255 1126.079468,297.635956 1125.377686,299.380768 
	C1119.339111,297.988068 1113.960938,296.382904 1108.466309,295.639343 
	C1105.846313,295.284760 1102.711670,296.024750 1100.361938,297.292145 
	C1098.672729,298.203247 1096.927734,300.840698 1096.988037,302.648834 
	C1097.047729,304.442047 1098.976440,306.940369 1100.723755,307.747162 
	C1104.148071,309.328339 1108.110718,309.695374 1111.677368,311.028137 
	C1116.614746,312.873138 1121.392334,315.145569 1126.505371,317.475830 
z"/>
<path fill="#F77D2B" opacity="1.000000" stroke="none" 
	d="
M1422.221436,299.595642 
	C1434.522949,304.786377 1440.290161,315.116699 1438.673950,329.389709 
	C1427.066895,329.389709 1415.355225,329.389709 1403.552002,329.389709 
	C1405.095947,340.093079 1416.021729,342.272003 1428.867676,334.810242 
	C1431.203125,337.412933 1433.602539,340.086945 1436.087158,342.855835 
	C1432.235840,348.363739 1427.049072,350.617279 1421.155273,351.635406 
	C1408.209961,353.871674 1396.232788,348.334290 1391.149780,337.793304 
	C1385.689575,326.469940 1388.304688,312.307251 1397.408081,304.397797 
	C1404.595947,298.152740 1412.957031,297.421783 1422.221436,299.595642 
M1419.255127,320.336151 
	C1421.205078,320.336151 1423.155029,320.336151 1425.202637,320.336151 
	C1423.893799,313.555878 1418.848633,309.673584 1412.754517,310.306488 
	C1407.388062,310.863861 1403.658691,314.691681 1403.467407,320.331055 
	C1408.424072,320.331055 1413.369995,320.331055 1419.255127,320.336151 
z"/>
<path fill="#F77D2B" opacity="1.000000" stroke="none" 
	d="
M1173.385986,317.978729 
	C1173.388184,311.677185 1173.388184,305.871185 1173.388184,299.571045 
	C1178.229736,299.571045 1182.741333,299.571045 1187.634277,299.571045 
	C1187.634277,316.450378 1187.634277,333.322479 1187.634277,350.171112 
	C1179.536011,352.246552 1175.762451,351.444000 1174.185425,347.472198 
	C1170.210083,348.895081 1166.345947,350.977173 1162.258057,351.607361 
	C1150.971680,353.347351 1142.093750,346.914246 1140.206055,335.683380 
	C1139.358643,330.641602 1139.489258,325.417053 1139.395874,320.271454 
	C1139.272705,313.484009 1139.365601,306.692627 1139.365601,299.513550 
	C1144.186523,299.513550 1148.582642,299.513550 1153.881470,299.513550 
	C1153.881470,302.360291 1153.871338,305.267029 1153.883545,308.173737 
	C1153.911255,314.827393 1153.664062,321.498230 1154.063477,328.129852 
	C1154.470825,334.893585 1157.924683,338.398102 1163.287598,338.457336 
	C1168.626465,338.516327 1172.189209,334.995911 1172.990479,328.439301 
	C1173.392334,325.150726 1173.269287,321.798004 1173.385986,317.978729 
z"/>
<path fill="#F77D2B" opacity="1.000000" stroke="none" 
	d="
M1281.668213,404.577332 
	C1281.721680,416.470001 1281.721680,427.923096 1281.721680,439.293304 
	C1273.157227,441.367706 1269.504517,440.606720 1267.734375,436.237854 
	C1261.414062,440.755005 1254.509888,442.293610 1247.030151,439.904266 
	C1239.941040,437.639709 1236.203979,432.681488 1236.012573,425.545868 
	C1235.822632,418.474518 1239.225342,412.623901 1246.292969,410.761017 
	C1252.931274,409.011292 1259.971558,408.786194 1266.965088,407.873291 
	C1267.904053,398.964355 1259.565430,397.211395 1243.720703,403.537720 
	C1243.453003,403.347107 1243.091797,403.211304 1242.935425,402.951965 
	C1237.311157,393.624298 1236.516602,392.494049 1247.877808,389.031219 
	C1252.972168,387.478485 1258.781982,387.177643 1264.115723,387.741486 
	C1274.198364,388.807373 1279.345825,394.160583 1281.668213,404.577332 
M1256.208008,418.229156 
	C1253.078003,418.867188 1250.121826,420.123444 1250.217651,423.748688 
	C1250.266602,425.599854 1251.464233,428.192932 1252.957886,429.083252 
	C1256.849609,431.403198 1260.983643,430.627289 1264.609619,427.963593 
	C1267.983887,425.484741 1268.708984,422.223724 1267.073608,418.126801 
	C1263.673096,418.126801 1260.372681,418.126801 1256.208008,418.229156 
z"/>
<path fill="#F77D2B" opacity="1.000000" stroke="none" 
	d="
M1308.418701,328.522766 
	C1306.234497,342.534851 1298.164429,350.811646 1285.969116,351.916229 
	C1272.399048,353.145386 1261.907837,346.967773 1257.779297,335.317078 
	C1253.264038,322.574921 1258.006348,308.343689 1268.867310,302.044220 
	C1279.742065,295.736816 1294.022705,297.884613 1302.192993,307.131622 
	C1307.494995,313.132385 1308.862183,320.364197 1308.418701,328.522766 
M1291.089355,335.540955 
	C1294.881958,330.808350 1294.955078,325.381683 1293.608398,319.908081 
	C1292.311523,314.636871 1287.133179,310.983765 1282.158447,311.321747 
	C1276.851318,311.682281 1272.838257,314.969482 1271.344604,320.179688 
	C1269.354858,327.120361 1271.449341,334.539581 1276.305298,337.751984 
	C1280.275757,340.378632 1285.800903,339.747284 1291.089355,335.540955 
z"/>
<path fill="#F87D2B" opacity="1.000000" stroke="none" 
	d="
M1230.115356,404.045654 
	C1232.323486,411.145782 1232.353149,417.912720 1229.923706,424.493652 
	C1225.021362,437.773010 1211.447632,444.001373 1197.297485,439.690063 
	C1184.034302,435.648987 1176.681885,422.358551 1179.788086,408.039612 
	C1182.782959,394.233948 1195.561157,385.380554 1209.525879,387.510895 
	C1219.382935,389.014587 1226.243896,394.389008 1230.115356,404.045654 
M1195.433228,421.698975 
	C1197.912598,426.313293 1201.916504,428.288086 1206.971436,427.841003 
	C1211.476074,427.442566 1215.443848,425.002258 1216.084473,420.621094 
	C1216.791870,415.783722 1216.594238,410.445648 1215.233154,405.780029 
	C1213.924927,401.295288 1209.295776,399.745941 1204.640381,400.072357 
	C1200.163330,400.386292 1196.113647,402.546722 1195.224731,406.926636 
	C1194.311157,411.428040 1195.078735,416.270569 1195.433228,421.698975 
z"/>
<path fill="#F77D2B" opacity="1.000000" stroke="none" 
	d="
M1352.474365,392.652344 
	C1351.958496,391.230438 1351.601196,390.163574 1350.958252,388.244293 
	C1355.576782,388.244293 1359.686401,387.943542 1363.702271,388.424591 
	C1364.933472,388.572052 1366.333374,390.693298 1366.930298,392.198517 
	C1370.546631,401.319489 1373.952026,410.524078 1377.440063,419.696106 
	C1377.484253,419.812256 1377.688232,419.867645 1378.561279,420.432373 
	C1379.810425,417.389404 1381.073608,414.472198 1382.211548,411.506897 
	C1384.596191,405.293030 1387.126221,399.122528 1389.179199,392.798645 
	C1390.365601,389.143890 1392.301392,387.723663 1396.083740,388.131531 
	C1398.829956,388.427704 1401.634033,388.189392 1405.330444,388.189392 
	C1403.395630,393.284210 1401.786011,397.592285 1400.125977,401.880890 
	C1395.681519,413.362762 1391.119263,424.800476 1386.824097,436.337738 
	C1385.718384,439.307739 1384.165161,440.432098 1380.994019,440.462799 
	C1370.555542,440.563904 1370.524170,440.689514 1366.816406,430.865906 
	C1362.057983,418.257965 1357.358154,405.627930 1352.474365,392.652344 
z"/>
<path fill="#F87D2B" opacity="1.000000" stroke="none" 
	d="
M1324.052490,435.335022 
	C1323.181519,436.957764 1322.491699,438.841034 1321.221802,439.395325 
	C1308.009766,445.162384 1295.422119,436.993347 1295.144531,422.582825 
	C1295.051514,417.760040 1294.964111,412.927032 1295.171631,408.111481 
	C1295.371216,403.476868 1295.529541,399.219757 1288.452026,401.278687 
	C1288.452026,397.077972 1288.452026,393.501068 1288.452026,389.504120 
	C1290.475830,389.249512 1292.530396,388.991058 1295.122437,388.664978 
	C1295.122437,384.652191 1295.122437,380.737732 1295.122437,376.460083 
	C1300.067139,376.460083 1304.455200,376.460083 1309.450317,376.460083 
	C1309.450317,380.408203 1309.450317,384.325562 1309.450317,388.800842 
	C1313.608887,388.800842 1317.186279,388.800842 1321.177734,388.800842 
	C1321.177734,393.060333 1321.177734,396.761719 1321.177734,401.052368 
	C1317.455444,401.052368 1313.882446,401.052368 1309.874146,401.052368 
	C1309.874146,408.872406 1309.533936,416.148315 1310.005249,423.371338 
	C1310.276245,427.524445 1313.442627,428.373871 1321.347412,426.874207 
	C1322.191162,429.487213 1323.077881,432.232910 1324.052490,435.335022 
z"/>
<path fill="#F87D2B" opacity="1.000000" stroke="none" 
	d="
M1356.902100,298.708740 
	C1356.966064,294.780304 1356.966064,291.316925 1356.966064,287.480499 
	C1361.800659,287.480499 1366.161865,287.480499 1371.143555,287.480499 
	C1371.143555,290.730896 1370.782104,293.744446 1371.299561,296.598602 
	C1371.549561,297.978088 1373.345703,299.980438 1374.622559,300.127045 
	C1384.399048,301.249451 1384.643188,301.451385 1382.712891,312.326385 
	C1379.142944,312.488800 1375.424072,312.657990 1371.339600,312.843811 
	C1371.339600,320.276917 1370.942383,327.403809 1371.476929,334.460114 
	C1371.843384,339.296600 1375.210205,340.199615 1382.605957,338.290344 
	C1382.865845,338.476288 1383.250854,338.613403 1383.358398,338.867767 
	C1387.669922,349.070251 1385.965454,351.675018 1374.824341,351.947296 
	C1363.956299,352.212952 1357.182861,345.881775 1356.963013,335.021118 
	C1356.815552,327.735687 1356.934937,320.444885 1356.934937,313.286469 
	C1348.778076,311.360046 1348.778076,311.360046 1349.578735,301.214600 
	C1351.998413,300.534302 1354.418213,299.854034 1356.902100,298.708740 
z"/>
<path fill="#F77D2C" opacity="1.000000" stroke="none" 
	d="
M1164.917114,403.663452 
	C1163.237427,407.358490 1161.037720,410.724670 1160.693481,414.270996 
	C1160.052368,420.874542 1160.509888,427.583099 1160.468750,434.247681 
	C1160.457764,436.029449 1160.296753,437.810333 1160.185181,439.965637 
	C1155.330933,439.965637 1150.924072,439.965637 1146.029907,439.965637 
	C1146.029907,431.203369 1146.033325,422.735107 1146.028809,414.266846 
	C1146.025146,407.102203 1146.205322,399.930023 1145.925903,392.775940 
	C1145.775879,388.934387 1147.192871,387.593994 1150.828613,388.095520 
	C1151.646240,388.208313 1152.499023,388.181030 1153.324463,388.101501 
	C1156.833130,387.763428 1159.977417,387.968597 1160.086426,391.900391 
	C1165.033813,390.018463 1169.844971,388.188385 1175.561279,386.014008 
	C1175.561279,391.915436 1175.561279,396.303436 1175.561279,400.693817 
	C1172.159668,401.590454 1168.697021,402.503174 1164.917114,403.663452 
z"/>
<path fill="#F87B28" opacity="1.000000" stroke="none" 
	d="
M1343.618652,312.411621 
	C1334.901978,313.238434 1331.281738,317.054138 1331.072876,325.783081 
	C1330.878418,333.908722 1331.031372,342.042664 1331.031372,350.555786 
	C1326.181763,350.555786 1321.813232,350.555786 1317.137939,350.555786 
	C1317.137939,333.499939 1317.137939,316.620880 1317.137939,299.800232 
	C1326.257324,297.916870 1329.194702,298.615234 1330.697510,302.843384 
	C1334.469116,301.329193 1338.168091,299.579315 1342.037354,298.378387 
	C1344.905762,297.488037 1346.906006,298.499023 1346.635254,302.107697 
	C1346.448853,304.591827 1346.826660,307.136841 1346.458130,309.580078 
	C1346.301147,310.619812 1344.881836,311.469025 1343.618652,312.411621 
z"/>
<path fill="#F78131" opacity="1.000000" stroke="none" 
	d="
M1331.311279,408.000366 
	C1331.310669,401.372742 1331.310669,395.244965 1331.310669,388.231140 
	C1335.607056,388.231140 1339.525391,388.052490 1343.404053,388.365936 
	C1344.291870,388.437683 1345.491577,390.099426 1345.753296,391.215668 
	C1346.160400,392.951965 1345.899902,394.847839 1345.900391,396.676117 
	C1345.904053,410.954346 1345.902344,425.232574 1345.902344,440.335724 
	C1341.655273,440.335724 1337.726562,440.594635 1333.876953,440.156891 
	C1332.893188,440.045013 1331.455933,437.744202 1331.425537,436.421600 
	C1331.212158,427.118469 1331.312134,417.808197 1331.311279,408.000366 
z"/>
<path fill="#EF8137" opacity="1.000000" stroke="none" 
	d="
M999.373352,376.875458 
	C986.439270,377.338928 986.421448,377.338867 986.457092,365.012054 
	C986.474854,358.868011 986.566772,352.724152 986.646912,346.580475 
	C986.650879,346.273407 986.863220,345.968994 987.223755,345.013214 
	C992.908752,345.439270 999.337402,342.770508 1004.309875,347.929810 
	C1007.686401,351.433167 1006.545898,355.619965 1004.176208,359.358215 
	C1010.299683,367.674988 1008.783447,373.588715 999.373352,376.875458 
M995.485535,371.999939 
	C999.237610,372.105194 1002.346863,371.284485 1001.918213,366.594788 
	C1001.592712,363.033752 998.622131,362.162109 991.904053,363.827698 
	C993.693298,366.330444 989.371826,370.307343 995.485535,371.999939 
M995.395569,357.938049 
	C997.184875,356.667084 998.974182,355.396149 1000.763428,354.125183 
	C999.636292,352.746826 998.737122,350.642242 997.317200,350.196564 
	C995.926025,349.759888 992.610291,350.917999 992.568298,351.540222 
	C992.421265,353.717224 990.426453,356.987274 995.395569,357.938049 
z"/>
<path fill="#EF8137" opacity="1.000000" stroke="none" 
	d="
M1029.951538,345.492188 
	C1032.004639,345.252228 1033.756470,345.252228 1036.015747,345.252228 
	C1035.070190,347.133759 1034.431885,348.637970 1033.597778,350.024323 
	C1029.210327,357.316376 1024.914185,364.580017 1026.310303,373.717621 
	C1026.452393,374.647217 1024.676270,375.869843 1023.790283,376.956482 
	C1022.732971,376.058990 1020.656860,374.995880 1020.771851,374.288940 
	C1022.387390,364.351715 1016.954224,356.742462 1012.714844,348.722260 
	C1012.189697,347.728729 1011.825256,346.650208 1011.297791,345.401550 
	C1020.641663,343.118652 1018.886597,353.152466 1023.751465,355.957397 
	C1025.713013,352.557037 1027.681641,349.144592 1029.951538,345.492188 
z"/>
<path fill="#F77D2C" opacity="1.000000" stroke="none" 
	d="
M1333.960693,365.881042 
	C1340.442871,363.809265 1345.041138,365.265778 1346.984863,369.723999 
	C1348.715820,373.694519 1347.259521,378.692871 1343.803833,380.641357 
	C1339.631470,382.993988 1333.860229,381.881439 1331.280273,378.227356 
	C1328.485840,374.269409 1329.318726,369.983002 1333.960693,365.881042 
z"/>
<path fill="#FFFBF5" opacity="1.000000" stroke="none" 
	d="
M1423.847412,402.761200 
	C1430.977173,398.482147 1437.337646,399.410919 1441.254761,405.011108 
	C1445.394897,410.930267 1444.179077,421.413513 1438.879272,425.492554 
	C1432.704468,430.244812 1423.802246,428.046478 1421.111938,420.755127 
	C1418.830566,414.571869 1418.767334,408.375763 1423.847412,402.761200 
z"/>
<path fill="#FFFCF8" opacity="1.000000" stroke="none" 
	d="
M749.368469,363.462219 
	C747.486816,376.738281 745.715820,389.585663 743.850769,402.419342 
	C743.701355,403.447449 742.903748,404.381348 742.407288,405.359009 
	C741.360779,404.714661 739.844604,404.324677 739.337341,403.388245 
	C729.989624,386.131531 720.718933,368.832275 711.620178,351.443512 
	C711.085876,350.422394 711.654297,348.104645 712.536072,347.170380 
	C725.327637,333.617188 738.230896,320.168640 751.219299,306.803772 
	C752.193542,305.801239 754.017517,305.624542 755.446533,305.063934 
	C755.870483,306.762451 756.834412,308.528046 756.633057,310.148895 
	C755.034607,323.016235 753.219421,335.856689 751.460388,348.703979 
	C750.806335,353.481293 750.124329,358.254791 749.368469,363.462219 
z"/>
<path fill="#FFFCF8" opacity="1.000000" stroke="none" 
	d="
M575.538818,345.336487 
	C576.743225,336.541351 577.858093,328.168915 579.013794,319.489838 
	C588.074646,319.489838 596.863159,319.010315 605.570129,319.646179 
	C612.171326,320.128296 616.734619,325.815643 617.078247,332.097260 
	C617.525574,340.275696 613.300476,347.603516 605.386169,348.938934 
	C595.676392,350.577271 585.676636,350.496735 575.449219,351.182983 
	C575.449219,348.614319 575.449219,347.186737 575.538818,345.336487 
z"/>
<path fill="#FFF9F2" opacity="1.000000" stroke="none" 
	d="
M56.259644,378.884094 
	C54.932442,379.158905 53.971565,379.353912 51.774605,379.799774 
	C58.852089,365.165710 65.556519,351.302979 72.260941,337.440277 
	C72.682114,337.486938 73.103287,337.533600 73.524460,337.580292 
	C75.304764,345.431885 77.204254,353.258820 78.837662,361.140869 
	C81.338158,373.207092 81.251762,373.182922 69.226982,375.730286 
	C64.999298,376.625885 60.824772,377.772400 56.259644,378.884094 
z"/>
<path fill="#FFF9F2" opacity="1.000000" stroke="none" 
	d="
M500.700714,353.290192 
	C501.710236,358.083984 502.435272,362.520538 503.601929,366.837769 
	C504.614227,370.583801 503.508087,372.414825 499.706970,373.194061 
	C492.106964,374.752228 484.558197,376.560608 476.020996,378.483490 
	C482.869690,364.254364 489.486206,350.507538 496.701569,335.516602 
	C498.214325,342.240875 499.411163,347.561005 500.700714,353.290192 
z"/>
<path fill="#FFFBF5" opacity="1.000000" stroke="none" 
	d="
M1218.813965,313.671021 
	C1225.029907,310.572235 1229.688965,310.958191 1233.263550,314.602661 
	C1237.284424,318.702179 1238.305664,326.344940 1235.633545,332.337769 
	C1233.486084,337.153503 1229.435425,339.467865 1224.028198,339.037781 
	C1219.779907,338.699890 1217.011353,336.323334 1215.204590,332.671661 
	C1212.220703,326.640961 1213.613159,318.926239 1218.813965,313.671021 
z"/>
<path fill="#FFF9F2" opacity="1.000000" stroke="none" 
	d="
M1103.231934,407.770294 
	C1101.534912,406.896088 1099.272827,406.072662 1099.227173,405.140625 
	C1098.912842,398.729004 1099.061890,392.294678 1099.061890,384.949432 
	C1104.762451,385.259277 1110.062500,385.022217 1115.143921,385.964630 
	C1120.723877,386.999512 1123.059692,390.768860 1122.964966,396.425903 
	C1122.867676,402.233063 1120.075684,406.103973 1114.567505,407.099792 
	C1111.018066,407.741547 1107.322632,407.575043 1103.231934,407.770294 
z"/>
<path fill="#FFF7EB" opacity="1.000000" stroke="none" 
	d="
M1418.785522,320.333618 
	C1413.369995,320.331055 1408.424072,320.331055 1403.467407,320.331055 
	C1403.658691,314.691681 1407.388062,310.863861 1412.754517,310.306488 
	C1418.848633,309.673584 1423.893799,313.555878 1425.202637,320.336151 
	C1423.155029,320.336151 1421.205078,320.336151 1418.785522,320.333618 
z"/>
<path fill="#FFF7EB" opacity="1.000000" stroke="none" 
	d="
M1256.640137,418.177979 
	C1260.372681,418.126801 1263.673096,418.126801 1267.073608,418.126801 
	C1268.708984,422.223724 1267.983887,425.484741 1264.609619,427.963593 
	C1260.983643,430.627289 1256.849609,431.403198 1252.957886,429.083252 
	C1251.464233,428.192932 1250.266602,425.599854 1250.217651,423.748688 
	C1250.121826,420.123444 1253.078003,418.867188 1256.640137,418.177979 
z"/>
<path fill="#FFFBF6" opacity="1.000000" stroke="none" 
	d="
M1290.832397,335.831238 
	C1285.800903,339.747284 1280.275757,340.378632 1276.305298,337.751984 
	C1271.449341,334.539581 1269.354858,327.120361 1271.344604,320.179688 
	C1272.838257,314.969482 1276.851318,311.682281 1282.158447,311.321747 
	C1287.133179,310.983765 1292.311523,314.636871 1293.608398,319.908081 
	C1294.955078,325.381683 1294.881958,330.808350 1290.832397,335.831238 
z"/>
<path fill="#FFFBF5" opacity="1.000000" stroke="none" 
	d="
M1195.271973,421.331390 
	C1195.078735,416.270569 1194.311157,411.428040 1195.224731,406.926636 
	C1196.113647,402.546722 1200.163330,400.386292 1204.640381,400.072357 
	C1209.295776,399.745941 1213.924927,401.295288 1215.233154,405.780029 
	C1216.594238,410.445648 1216.791870,415.783722 1216.084473,420.621094 
	C1215.443848,425.002258 1211.476074,427.442566 1206.971436,427.841003 
	C1201.916504,428.288086 1197.912598,426.313293 1195.271973,421.331390 
z"/>
<path fill="#FFF7EB" opacity="1.000000" stroke="none" 
	d="
M995.057617,371.990906 
	C989.371826,370.307343 993.693298,366.330444 991.904053,363.827698 
	C998.622131,362.162109 1001.592712,363.033752 1001.918213,366.594788 
	C1002.346863,371.284485 999.237610,372.105194 995.057617,371.990906 
z"/>
<path fill="#FFF7EB" opacity="1.000000" stroke="none" 
	d="
M994.984863,357.930237 
	C990.426453,356.987274 992.421265,353.717224 992.568298,351.540222 
	C992.610291,350.917999 995.926025,349.759888 997.317200,350.196564 
	C998.737122,350.642242 999.636292,352.746826 1000.763428,354.125183 
	C998.974182,355.396149 997.184875,356.667084 994.984863,357.930237 
z"/>
</svg>